<svg height="200" viewBox="0 0 1024 1024" width="200" xmlns="http://www.w3.org/2000/svg"><path d="m1024 512c0-282.763636-229.236364-512-512-512s-512 229.236364-512 512 229.236364 512 512 512 512-229.236364 512-512zm-787.688727 181.946182c8.843636 1.117091 17.873455 1.722182 26.996364 1.722182 53.015273.093091 101.794909-19.037091 140.474182-51.153455-49.524364-1.163636-91.275636-36.165818-105.658182-84.200727 6.888727 1.442909 14.010182 2.280727 21.271273 2.327273 10.333091.046545 20.293818-1.349818 29.789091-4.049455-51.758545-11.450182-90.763636-60.555636-90.763636-119.063273 0-.512 0-1.024 0-1.536 15.266909 9.216 32.674909 14.801455 51.246545 15.639273-30.301092-21.922909-50.269092-59.159273-50.269092-101.050182 0-22.155636 5.585455-42.821818 15.313455-60.509091 55.808 73.774545 139.170909 122.740364 233.146182 128.837818-1.954909-8.797091-2.932364-17.966545-2.932364-27.322182 0-66.141091 50.641455-118.923636 113.105455-117.899636 32.535273.558545 61.952 15.499636 82.571636 38.958545 25.786182-4.933818 49.989818-14.429091 71.819636-27.694545-8.424727 27.601455-26.391273 50.594909-49.757091 64.977455 22.900364-2.56 44.683636-8.610909 64.977455-17.780364-15.173818 23.598545-34.350545 44.218182-56.459636 60.695273.232727 5.12.325818 10.24.325818 15.36 0 157.044364-113.803636 338.152727-321.861818 338.059636-63.813819.046546-123.29891-19.968-173.335273-54.318545z"/></svg>