<svg height="200" viewBox="0 0 1024 1024" width="200" xmlns="http://www.w3.org/2000/svg"><path d="m511.896576 0c-282.712064 0-511.896576 229.184512-511.896576 511.899648 0 282.708992 229.184512 511.893504 511.896576 511.893504s511.893504-229.184512 511.893504-511.893504c0-282.715136-229.18144-511.899648-511.893504-511.899648zm-47.463424 767.041536c-130.83136 0-264.563712-63.404032-264.563712-167.69024 0-54.520832 34.541568-117.568512 94.0288-177.068032 79.430656-79.409152 172.059648-115.581952 206.896128-80.723968 15.371264 15.348736 16.859136 41.947136 6.979584 73.693184-5.149696 15.992832 15.009792 7.13728 15.009792 7.172096 64.202752-26.88 120.215552-28.464128 140.68736.78848 10.925056 15.588352 9.879552 37.446656-.18944 62.778368-4.657152 11.669504 1.432576 13.477888 10.313728 16.144384 36.175872 11.214848 76.438528 38.340608 76.438528 86.140928-.001024 79.115264-114.08896 178.7648-285.600768 178.7648zm236.853248-331.592704c4.231168-13.072384 1.580032-27.972608-8.28416-38.90688-9.854976-10.912768-24.419328-15.053824-37.851136-12.214272v-.023552c-11.203584 2.438144-22.247424-4.753408-24.649728-15.946752-2.408448-11.240448 4.749312-22.293504 15.97952-24.686592 27.476992-5.84192 57.244672 2.65216 77.402112 25.01632 20.200448 22.361088 25.602048 52.822016 16.96768 79.543296-3.524608 10.940416-15.244288 16.896-26.169344 13.39904-10.921984-3.535872-16.894976-15.269888-13.374464-26.180608zm121.125888 39.115776c-.007168.021504-.007168.069632-.007168.093184-4.110336 12.674048-17.73056 19.61472-30.399488 15.512576-12.719104-4.10624-19.668992-17.696768-15.563776-30.401536l-.007168-.008192c12.599296-39.001088 4.609024-83.49184-24.807424-116.109312-29.443072-32.620544-72.856576-45.080576-112.9728-36.56192-13.048832 2.782208-25.880576-5.547008-28.662784-18.582528-2.793472-13.024256 5.52448-25.86112 18.573312-28.653568h.023552c56.388608-11.988992 117.481472 5.516288 158.901248 51.437568 41.43104 45.873152 52.598784 108.412928 34.922496 163.273728zm-181.875712 103.747584c-6.767616-68.514816-96.889856-115.705856-201.298944-105.382912-104.38656 10.322944-183.547904 74.238976-176.766976 142.767104 6.781952 68.545536 96.900096 115.736576 201.29792 105.434112 104.411136-10.329088 183.538688-74.251264 176.768-142.818304zm-109.70112 56.257536c-21.305344 48.190464-82.586624 73.882624-134.575104 57.115648-50.193408-16.19968-71.442432-65.757184-49.466368-110.401536 21.577728-43.771904 77.727744-68.530176 127.40608-55.606272 51.412992 13.288448 77.648896 61.78816 56.635392 108.89216zm-106.230784-36.711424c-16.164864-6.776832-37.061632.191488-47.03744 15.834112-10.098688 15.710208-5.36064 34.419712 10.691584 41.729024 16.285696 7.436288 37.90848.376832 48.008192-15.73376 9.915392-16.269312 4.694016-34.857984-11.662336-41.829376zm39.84384-16.518144c-6.203392-2.461696-13.959168.518144-17.596416 6.62016-3.533824 6.132736-1.584128 13.11744 4.632576 15.675392 6.324224 2.603008 14.395392-.402432 18.046976-6.641664 3.484672-6.28736 1.219584-13.348864-5.083136-15.653888z"/></svg>